<svg  xmlns="http://www.w3.org/2000/svg" xmlns:xlink="http://www.w3.org/1999/xlink" width="36px" height="30px"><path fill-rule="evenodd"  fill="rgb(234, 76, 37)" d="M35.905,9.520 C35.943,9.675 35.969,9.834 35.969,10.000 C35.969,11.105 35.073,12.000 33.969,12.000 L2.000,12.000 C0.895,12.000 -0.000,11.105 -0.000,10.000 C-0.000,8.895 0.895,8.000 2.000,8.000 L30.185,8.000 L25.558,3.369 C24.779,2.590 24.779,1.327 25.558,0.549 C26.336,-0.230 27.598,-0.230 28.375,0.549 L35.420,7.600 C35.942,8.122 36.082,8.855 35.905,9.520 ZM-0.000,20.000 C-0.000,18.895 0.895,18.000 2.000,18.000 L33.969,18.000 C35.073,18.000 35.969,18.895 35.969,20.000 C35.969,21.104 35.073,22.000 33.969,22.000 L5.846,22.000 L10.442,26.600 C11.220,27.378 11.220,28.641 10.442,29.420 C9.664,30.199 8.403,30.199 7.624,29.420 L0.579,22.369 C0.078,21.868 -0.065,21.172 0.079,20.528 C0.033,20.358 -0.000,20.184 -0.000,20.000 Z"/></svg>